<svg width="32" height="32" viewBox="0 0 32 32" fill="none" xmlns="http://www.w3.org/2000/svg">
<path fill-rule="evenodd" clip-rule="evenodd" d="M31.3672 27.7357C31.0561 28.5258 30.3384 29.6383 29.3205 30.4219C28.7329 30.8745 28.0313 31.3072 27.0676 31.5927C26.0403 31.8971 24.7749 32 23.2 32H8.8001C7.22534 32 5.95999 31.8971 4.93258 31.5927C3.96888 31.3072 3.2674 30.8745 2.67962 30.4219C1.66187 29.6382 0.943989 28.5258 0.632929 27.7357C0.00635821 26.1438 0 24.3376 0 23.2V8.79997C0 7.66243 0.00635821 5.85622 0.632929 4.26429C0.943989 3.47418 1.66174 2.36169 2.67962 1.57806C3.26727 1.12546 3.96888 0.692826 4.93258 0.407328C5.95986 0.102881 7.22521 0 8.8001 0H23.2002C24.7749 0 26.0403 0.102881 27.0677 0.407328C28.0314 0.692826 28.7329 1.12559 29.3206 1.57806C30.3384 2.36182 31.0563 3.47418 31.3673 4.26429C31.9939 5.85622 32.0003 7.66243 32.0003 8.79997V23.2C32.0001 24.3375 31.9938 26.1437 31.3672 27.7357Z" fill="url(#paint0_linear_2_31)"/>
<defs>
<linearGradient id="paint0_linear_2_31" x1="16.0001" y1="0" x2="16.0001" y2="32" gradientUnits="userSpaceOnUse">
<stop stop-color="#F452FF"/>
<stop offset="1" stop-color="#832BC1"/>
</linearGradient>
</defs>
</svg>
