<svg width="26" height="26" viewBox="0 0 26 26" fill="none" xmlns="http://www.w3.org/2000/svg">
<path d="M1.68622 18.6568C0.124124 20.2189 0.124125 22.7515 1.68622 24.3136C3.24832 25.8757 5.78098 25.8757 7.34308 24.3136L12.9999 18.6568L18.6568 24.3136C20.2189 25.8757 22.7515 25.8757 24.3136 24.3136C25.8757 22.7515 25.8757 20.2189 24.3136 18.6568L18.6568 12.9999L24.3136 7.34308C25.8757 5.78098 25.8757 3.24832 24.3136 1.68622C22.7515 0.124125 20.2189 0.124125 18.6568 1.68622L12.9999 7.34308L7.34308 1.68622C5.78098 0.124124 3.24832 0.124124 1.68622 1.68622C0.124125 3.24832 0.124125 5.78098 1.68622 7.34307L7.34308 12.9999L1.68622 18.6568Z" fill="#F5A623"/>
</svg>
